<svg width="18" height="18" viewBox="0 0 18 18" fill="none" xmlns="http://www.w3.org/2000/svg">
<path d="M14.25 10.5C14.25 10.0858 13.9142 9.75 13.5 9.75C13.0858 9.75 12.75 10.0858 12.75 10.5H14.25ZM13.5 13.5V14.25C13.9142 14.25 14.25 13.9142 14.25 13.5H13.5ZM10.5 12.75C10.0858 12.75 9.75 13.0858 9.75 13.5C9.75 13.9142 10.0858 14.25 10.5 14.25V12.75ZM11.0303 9.96967C10.7374 9.67678 10.2626 9.67678 9.96967 9.96967C9.67678 10.2626 9.67678 10.7374 9.96967 11.0303L11.0303 9.96967ZM3.75 7.5C3.75 7.91421 4.08579 8.25 4.5 8.25C4.91421 8.25 5.25 7.91421 5.25 7.5H3.75ZM4.5 4.5L4.5 3.75C4.30109 3.75 4.11032 3.82902 3.96967 3.96967C3.82902 4.11032 3.75 4.30109 3.75 4.5H4.5ZM7.5 5.25C7.91421 5.25 8.25 4.91421 8.25 4.5C8.25 4.08579 7.91421 3.75 7.5 3.75V5.25ZM6.96967 8.03033C7.26256 8.32322 7.73744 8.32322 8.03033 8.03033C8.32322 7.73744 8.32322 7.26256 8.03033 6.96967L6.96967 8.03033ZM2.79754 16.8413L2.45704 17.5095L2.79754 16.8413ZM1.15873 15.2025L0.490471 15.543L1.15873 15.2025ZM16.8413 15.2025L17.5095 15.543L16.8413 15.2025ZM15.2025 16.8413L15.543 17.5095L15.2025 16.8413ZM15.2025 1.15873L15.543 0.490471L15.2025 1.15873ZM16.8413 2.79754L17.5095 2.45704L16.8413 2.79754ZM2.79754 1.15873L2.45704 0.490471L2.79754 1.15873ZM1.15873 2.79754L0.490471 2.45704L1.15873 2.79754ZM12.75 10.5V13.5H14.25V10.5H12.75ZM13.5 12.75H10.5V14.25H13.5V12.75ZM14.0303 12.9697L11.0303 9.96967L9.96967 11.0303L12.9697 14.0303L14.0303 12.9697ZM5.25 7.5L5.25 4.5H3.75L3.75 7.5H5.25ZM4.5 5.25L7.5 5.25V3.75L4.5 3.75L4.5 5.25ZM3.96967 5.03033L6.96967 8.03033L8.03033 6.96967L5.03033 3.96967L3.96967 5.03033ZM6.75 1.5H11.25V0H6.75V1.5ZM16.5 6.75V11.25H18V6.75H16.5ZM11.25 16.5H6.75V18H11.25V16.5ZM1.5 11.25V6.75H0V11.25H1.5ZM6.75 16.5C5.68753 16.5 4.93578 16.4994 4.34808 16.4514C3.76914 16.4041 3.41576 16.3145 3.13803 16.173L2.45704 17.5095C2.98148 17.7767 3.55423 17.8915 4.22593 17.9464C4.88888 18.0006 5.71228 18 6.75 18V16.5ZM0 11.25C0 12.2877 -0.000583291 13.1111 0.0535815 13.7741C0.108462 14.4458 0.223257 15.0185 0.490471 15.543L1.82698 14.862C1.68547 14.5842 1.5959 14.2309 1.5486 13.6519C1.50058 13.0642 1.5 12.3125 1.5 11.25H0ZM3.13803 16.173C2.57354 15.8854 2.1146 15.4265 1.82698 14.862L0.490471 15.543C0.921901 16.3897 1.61031 17.0781 2.45704 17.5095L3.13803 16.173ZM16.5 11.25C16.5 12.3125 16.4994 13.0642 16.4514 13.6519C16.4041 14.2309 16.3145 14.5842 16.173 14.862L17.5095 15.543C17.7767 15.0185 17.8915 14.4458 17.9464 13.7741C18.0006 13.1111 18 12.2877 18 11.25H16.5ZM11.25 18C12.2877 18 13.1111 18.0006 13.7741 17.9464C14.4458 17.8915 15.0185 17.7767 15.543 17.5095L14.862 16.173C14.5842 16.3145 14.2309 16.4041 13.6519 16.4514C13.0642 16.4994 12.3125 16.5 11.25 16.5V18ZM16.173 14.862C15.8854 15.4265 15.4265 15.8854 14.862 16.173L15.543 17.5095C16.3897 17.0781 17.0781 16.3897 17.5095 15.543L16.173 14.862ZM11.25 1.5C12.3125 1.5 13.0642 1.50058 13.6519 1.5486C14.2309 1.5959 14.5842 1.68547 14.862 1.82698L15.543 0.490471C15.0185 0.223257 14.4458 0.108462 13.7741 0.0535815C13.1111 -0.000583291 12.2877 0 11.25 0V1.5ZM18 6.75C18 5.71228 18.0006 4.88888 17.9464 4.22593C17.8915 3.55423 17.7767 2.98148 17.5095 2.45704L16.173 3.13803C16.3145 3.41576 16.4041 3.76914 16.4514 4.34808C16.4994 4.93578 16.5 5.68753 16.5 6.75H18ZM14.862 1.82698C15.4265 2.1146 15.8854 2.57354 16.173 3.13803L17.5095 2.45704C17.0781 1.61031 16.3897 0.921901 15.543 0.490471L14.862 1.82698ZM6.75 0C5.71228 0 4.88888 -0.000583291 4.22593 0.0535815C3.55423 0.108462 2.98148 0.223257 2.45704 0.490471L3.13803 1.82698C3.41576 1.68547 3.76914 1.5959 4.34808 1.5486C4.93578 1.50058 5.68753 1.5 6.75 1.5V0ZM1.5 6.75C1.5 5.68753 1.50058 4.93578 1.5486 4.34808C1.5959 3.76914 1.68547 3.41576 1.82698 3.13803L0.490471 2.45704C0.223257 2.98148 0.108462 3.55423 0.0535815 4.22593C-0.000583291 4.88888 0 5.71228 0 6.75H1.5ZM2.45704 0.490471C1.61031 0.921901 0.921901 1.61031 0.490471 2.45704L1.82698 3.13803C2.1146 2.57354 2.57354 2.1146 3.13803 1.82698L2.45704 0.490471Z" fill="#D7D8D9"/>
</svg>
