<svg width="24" height="25" viewBox="0 0 24 25" fill="none" xmlns="http://www.w3.org/2000/svg">
<g filter="url(#filter0_d_8549_289)">
<g clip-path="url(#clip0_8549_289)">
<path d="M12.75 17.2324C12.75 17.6466 13.0858 17.9824 13.5 17.9824C13.9142 17.9824 14.25 17.6466 14.25 17.2324H12.75ZM13.5 14.2324V13.4824C13.0858 13.4824 12.75 13.8182 12.75 14.2324H13.5ZM16.5 14.9824C16.9142 14.9824 17.25 14.6466 17.25 14.2324C17.25 13.8182 16.9142 13.4824 16.5 13.4824V14.9824ZM15.9697 17.7628C16.2626 18.0556 16.7374 18.0556 17.0303 17.7628C17.3232 17.4699 17.3232 16.995 17.0303 16.7021L15.9697 17.7628ZM11.25 8.23242C11.25 7.81821 10.9142 7.48242 10.5 7.48242C10.0858 7.48242 9.75 7.81821 9.75 8.23242H11.25ZM10.5 11.2324V11.9824C10.9142 11.9824 11.25 11.6466 11.25 11.2324H10.5ZM7.5 10.4824C7.08579 10.4824 6.75 10.8182 6.75 11.2324C6.75 11.6466 7.08579 11.9824 7.5 11.9824V10.4824ZM8.03033 7.70209C7.73744 7.4092 7.26256 7.4092 6.96967 7.70209C6.67678 7.99499 6.67678 8.46986 6.96967 8.76275L8.03033 7.70209ZM5.79754 20.5737L6.13803 19.9054L5.79754 20.5737ZM4.15873 18.9349L4.82698 18.5944L4.15873 18.9349ZM19.8413 18.9349L19.173 18.5944L19.8413 18.9349ZM18.2025 20.5737L17.862 19.9054L18.2025 20.5737ZM18.2025 4.89115L17.862 5.5594L18.2025 4.89115ZM19.8413 6.52996L19.173 6.87045L19.8413 6.52996ZM5.79754 4.89115L6.13803 5.5594L5.79754 4.89115ZM4.15873 6.52996L4.82698 6.87045L4.15873 6.52996ZM14.25 17.2324V14.2324H12.75V17.2324H14.25ZM13.5 14.9824H16.5V13.4824H13.5V14.9824ZM12.9697 14.7628L15.9697 17.7628L17.0303 16.7021L14.0303 13.7021L12.9697 14.7628ZM9.75 8.23242V11.2324H11.25V8.23242H9.75ZM10.5 10.4824H7.5V11.9824H10.5V10.4824ZM11.0303 10.7021L8.03033 7.70209L6.96967 8.76275L9.96967 11.7628L11.0303 10.7021ZM9.75 5.23242H14.25V3.73242H9.75V5.23242ZM19.5 10.4824V14.9824H21V10.4824H19.5ZM14.25 20.2324H9.75V21.7324H14.25V20.2324ZM4.5 14.9824V10.4824H3V14.9824H4.5ZM9.75 20.2324C8.68753 20.2324 7.93578 20.2318 7.34808 20.1838C6.76914 20.1365 6.41576 20.047 6.13803 19.9054L5.45704 21.242C5.98148 21.5092 6.55423 21.624 7.22593 21.6788C7.88888 21.733 8.71228 21.7324 9.75 21.7324V20.2324ZM3 14.9824C3 16.0201 2.99942 16.8435 3.05358 17.5065C3.10846 18.1782 3.22326 18.7509 3.49047 19.2754L4.82698 18.5944C4.68547 18.3167 4.5959 17.9633 4.5486 17.3843C4.50058 16.7966 4.5 16.0449 4.5 14.9824H3ZM6.13803 19.9054C5.57354 19.6178 5.1146 19.1589 4.82698 18.5944L3.49047 19.2754C3.9219 20.1221 4.61031 20.8105 5.45704 21.242L6.13803 19.9054ZM19.5 14.9824C19.5 16.0449 19.4994 16.7966 19.4514 17.3843C19.4041 17.9633 19.3145 18.3167 19.173 18.5944L20.5095 19.2754C20.7767 18.7509 20.8915 18.1782 20.9464 17.5065C21.0006 16.8435 21 16.0201 21 14.9824H19.5ZM14.25 21.7324C15.2877 21.7324 16.1111 21.733 16.7741 21.6788C17.4458 21.624 18.0185 21.5092 18.543 21.242L17.862 19.9054C17.5842 20.047 17.2309 20.1365 16.6519 20.1838C16.0642 20.2318 15.3125 20.2324 14.25 20.2324V21.7324ZM19.173 18.5944C18.8854 19.1589 18.4265 19.6178 17.862 19.9054L18.543 21.242C19.3897 20.8105 20.0781 20.1221 20.5095 19.2754L19.173 18.5944ZM14.25 5.23242C15.3125 5.23242 16.0642 5.23301 16.6519 5.28102C17.2309 5.32832 17.5842 5.41789 17.862 5.5594L18.543 4.22289C18.0185 3.95568 17.4458 3.84088 16.7741 3.786C16.1111 3.73184 15.2877 3.73242 14.25 3.73242V5.23242ZM21 10.4824C21 9.4447 21.0006 8.6213 20.9464 7.95836C20.8915 7.28665 20.7767 6.7139 20.5095 6.18946L19.173 6.87045C19.3145 7.14818 19.4041 7.50156 19.4514 8.0805C19.4994 8.6682 19.5 9.41995 19.5 10.4824H21ZM17.862 5.5594C18.4265 5.84702 18.8854 6.30596 19.173 6.87045L20.5095 6.18946C20.0781 5.34274 19.3897 4.65432 18.543 4.22289L17.862 5.5594ZM9.75 3.73242C8.71228 3.73242 7.88888 3.73184 7.22593 3.786C6.55423 3.84088 5.98148 3.95568 5.45704 4.22289L6.13803 5.5594C6.41576 5.41789 6.76914 5.32832 7.34808 5.28102C7.93578 5.23301 8.68753 5.23242 9.75 5.23242V3.73242ZM4.5 10.4824C4.5 9.41995 4.50058 8.6682 4.5486 8.0805C4.5959 7.50156 4.68547 7.14818 4.82698 6.87045L3.49047 6.18946C3.22326 6.7139 3.10846 7.28665 3.05358 7.95836C2.99942 8.6213 3 9.4447 3 10.4824H4.5ZM5.45704 4.22289C4.61031 4.65432 3.9219 5.34274 3.49047 6.18946L4.82698 6.87045C5.1146 6.30596 5.57354 5.84702 6.13803 5.5594L5.45704 4.22289Z" fill="#D7D8D9"/>
</g>
</g>
<defs>
<filter id="filter0_d_8549_289" x="-2" y="-0.267578" width="28" height="28" filterUnits="userSpaceOnUse" color-interpolation-filters="sRGB">
<feFlood flood-opacity="0" result="BackgroundImageFix"/>
<feColorMatrix in="SourceAlpha" type="matrix" values="0 0 0 0 0 0 0 0 0 0 0 0 0 0 0 0 0 0 127 0" result="hardAlpha"/>
<feOffset dy="1"/>
<feGaussianBlur stdDeviation="1"/>
<feColorMatrix type="matrix" values="0 0 0 0 0.0627451 0 0 0 0 0.0941176 0 0 0 0 0.156863 0 0 0 0.05 0"/>
<feBlend mode="normal" in2="BackgroundImageFix" result="effect1_dropShadow_8549_289"/>
<feBlend mode="normal" in="SourceGraphic" in2="effect1_dropShadow_8549_289" result="shape"/>
</filter>
<clipPath id="clip0_8549_289">
<rect width="18" height="18" fill="#D7D8D9" transform="translate(3 3.73242)"/>
</clipPath>
</defs>
</svg>
